<svg id="filled_outline" height="512" viewBox="0 0 512 512" width="512" xmlns="http://www.w3.org/2000/svg" data-name="filled outline"><path d="m224 184h224v96h-224z" fill="#02c26a"/><path d="m256 280h232v96h-232z" fill="#00b55b"/><path d="m264 376h208v96h-208z" fill="#02c26a"/><path d="m280 472h-256v-20.68631a27.31368 27.31368 0 0 1 8-19.31369 27.31367 27.31367 0 0 0 8-19.31368v-116.68632a72 72 0 0 1 72-72h80a72 72 0 0 1 72 72v128l8 8a27.31368 27.31368 0 0 1 8 19.31369z" fill="#f07f2f"/><path d="m184 224 7.08663-17.71658a124.6218 124.6218 0 0 0 8.91337-46.28342h-96a124.6218 124.6218 0 0 0 8.91337 46.2834l7.08663 17.7166z" fill="#d45d13"/><path d="m328 376h64v96h-64z" fill="#f6bb00"/><path d="m376 88a32 32 0 0 0 32-32v-16h64v16a32 32 0 0 1 -32 32z" fill="#00a64f"/><path d="m264 424h-40v-128a32 32 0 0 0 -32-32h-.00007a39.99993 39.99993 0 0 1 -39.99993-39.99993v-.00007h40a72 72 0 0 1 72 72z" fill="#de6a1e"/><path d="m344 280h64v96h-64z" fill="#eda600"/><path d="m304 184h64v96h-64z" fill="#f6bb00"/><path d="m248 88h224v96h-224z" fill="#00b55b"/><path d="m328 88h64v96h-64z" fill="#eda600"/><path d="m24 480h256a7.99977 7.99977 0 0 0 8-8v-20.68652a35.07927 35.07927 0 0 0 -10.34326-24.97022l-5.65674-5.65674v-124.68652a80.09427 80.09427 0 0 0 -76.22229-79.904l2.73645-6.84156a132.03708 132.03708 0 0 0 9.48584-49.25444 7.99977 7.99977 0 0 0 -8-8h-96a7.99977 7.99977 0 0 0 -8 8 132.03708 132.03708 0 0 0 9.48584 49.25439l2.73645 6.84156a80.09427 80.09427 0 0 0 -76.22229 79.90405v116.68652a19.18508 19.18508 0 0 1 -5.65674 13.65625 35.08124 35.08124 0 0 0 -10.34326 24.97071v20.68652a7.99977 7.99977 0 0 0 8 8zm167.72852-312a116.02731 116.02731 0 0 1 -8.06983 35.312l-5.07501 12.688h-53.16736l-5.075-12.688a116.02731 116.02731 0 0 1 -8.06984-35.312zm-159.72852 283.31348a19.18621 19.18621 0 0 1 5.65674-13.65674 35.08178 35.08178 0 0 0 10.34326-24.97022v-116.68652a64.0727 64.0727 0 0 1 64-64h80a64.0727 64.0727 0 0 1 64 64v120h-32v16h36.6864l5.65686 5.65723a19.18424 19.18424 0 0 1 5.65674 13.65625v12.68652h-240z"/><path d="m155.544 344h-16a12 12 0 0 1 0-24h32v-16h-16v-16h-16v16a28 28 0 0 0 0 56h16a12 12 0 0 1 0 24h-40v16h24v12.74854h16v-12.74854a28 28 0 0 0 0-56z"/><path d="m488 272h-32v-80h16a7.99977 7.99977 0 0 0 8-8v-96a7.99977 7.99977 0 0 0 -8-8h-.02185a39.79083 39.79083 0 0 0 8.02185-24v-16a7.99977 7.99977 0 0 0 -8-8h-64a7.99977 7.99977 0 0 0 -8 8v16a24.02687 24.02687 0 0 1 -24 24h-128a7.99977 7.99977 0 0 0 -8 8v88h-16a7.99977 7.99977 0 0 0 -8 8v24h16v-16h64v16h-48v16h48v16h-24v16h24v16h-8v16h48v16h-32v16h32v16h-32v16h32v16h-56v16h40v16h-16v16h16v16h-16v16h16v16h-24v16h176a7.99977 7.99977 0 0 0 8-8v-88h8a7.99977 7.99977 0 0 0 8-8v-96a7.99977 7.99977 0 0 0 -8-8zm-8 32h-64v-16h64zm-80 112h64v16h-64zm16-96h64v16h-64zm-40-48v-16h64v16zm64-32h-64v-16h64zm0-32h-64v-16h64zm24-112v16h-64v-16zm-64 32h64v16h-64zm0 48v-16h64v16zm16-120v-8h48v8a24.02687 24.02687 0 0 1 -24 24h-32.02185a39.79083 39.79083 0 0 0 8.02185-24zm-32 40v80h-48v-80zm-128 0h64v16h-48v16h48v16h-48v16h48v16h-64zm56 96h48v80h-48zm40 96h48v80h-48zm-16 96h48v80h-48zm64 80v-16h64v16zm64-64h-64v-16h64zm-48-32v-16h64v16z"/></svg>